# xmcd
#
# Track frame offsets: 
#        150
#        23975
#        51377
#        78558
#        103419
#        136007
#        162691
#        182073
#        206897
#        230875
#
# Disc length: 3345 seconds
#
# Revision: 1
# Processed by: cddbd v1.5.2PL0 Copyright (c) Steve Scherf et al.
# Submitted via: ExactAudioCopy v1.3
#
DISCID=970d0f0a
DTITLE=Big Apple Blues - Live At O'Flaherty's
DYEAR=2012
DGENRE=Soul Blues
TTITLE0=Slammer 
TTITLE1=How Long Can A Bird Sing
TTITLE2=Brooklyn Swamp 
TTITLE3=Zach's Mood
TTITLE4=Black Night
TTITLE5=Chitlins Con Carne
TTITLE6=Cleo's Mood
TTITLE7=Come Back Baby
TTITLE8=Midtown Blowout
TTITLE9=Walk Right Up To Me Baby
EXTD=
EXTT0=
EXTT1=
EXTT2=
EXTT3=
EXTT4=
EXTT5=
EXTT6=
EXTT7=
EXTT8=
EXTT9=
PLAYORDER=
